<?xml version="1.0" encoding="UTF-8" standalone="no"?>
<svg
   xmlns:dc="http://purl.org/dc/elements/1.1/"
   xmlns:cc="http://creativecommons.org/ns#"
   xmlns:rdf="http://www.w3.org/1999/02/22-rdf-syntax-ns#"
   xmlns:svg="http://www.w3.org/2000/svg"
   xmlns="http://www.w3.org/2000/svg"
   xmlns:xlink="http://www.w3.org/1999/xlink"
   xmlns:sodipodi="http://sodipodi.sourceforge.net/DTD/sodipodi-0.dtd"
   xmlns:inkscape="http://www.inkscape.org/namespaces/inkscape"
   id="svg8"
   width="2434.115"
   height="1169.409"
   version="1.1"
   viewBox="0 0 644.026 309.406"
   sodipodi:docname="trilha-nova-fundo-1.svg"
   inkscape:version="1.0.2 (1.0.2+r75+1)">
  <sodipodi:namedview
     pagecolor="#ffffff"
     bordercolor="#666666"
     borderopacity="1"
     objecttolerance="10"
     gridtolerance="10"
     guidetolerance="10"
     inkscape:pageopacity="0"
     inkscape:pageshadow="2"
     inkscape:window-width="1920"
     inkscape:window-height="1025"
     id="namedview3169"
     showgrid="false"
     inkscape:zoom="0.69511917"
     inkscape:cx="1217.0575"
     inkscape:cy="584.70453"
     inkscape:window-x="0"
     inkscape:window-y="27"
     inkscape:window-maximized="1"
     inkscape:current-layer="svg8" />
  <defs
     id="defs2">
    <marker
       id="marker2264"
       orient="auto"
       refX="0"
       refY="0"
       style="overflow:visible">
      <path
         id="path2262"
         d="M 8.7185878,4.0337352 -2.2072895,0.01601326 8.7185884,-4.0017078 c -1.7454984,2.3720609 -1.7354408,5.6174519 -6e-7,8.035443 z"
         transform="matrix(-1.1,0,0,-1.1,-1.1,0)"
         style="fill:#000;fill-opacity:1;fill-rule:evenodd;stroke:#000;stroke-width:.625;stroke-linejoin:round;stroke-opacity:1" />
    </marker>
  </defs>
  <metadata
     id="metadata5">
    <rdf:RDF>
      <cc:Work
         rdf:about="">
        <dc:format>image/svg+xml</dc:format>
        <dc:type
           rdf:resource="http://purl.org/dc/dcmitype/StillImage" />
        <dc:title></dc:title>
      </cc:Work>
    </rdf:RDF>
  </metadata>
  <g
     id="layer1"
     transform="translate(96.928374,64.425486)">
    <g
       style="font-size:10.5833px;line-height:0;font-family:'Baekmuk Gulim';-inkscape-font-specification:'Baekmuk Gulim';stroke:#0b0b0b;stroke-width:.265;stroke-miterlimit:4;stroke-dasharray:none;stroke-opacity:0"
       id="text848">
      <g
         style="font-size:25.4px;line-height:326.39px;font-family:'Baekmuk Gulim';-inkscape-font-specification:'Baekmuk Gulim';stroke-width:.79375;stroke-miterlimit:4;stroke-dasharray:none;stroke-dashoffset:0"
         id="text913"
         aria-label="Rio do Sul">
        <desc
           id="desc917">Texto Rio do Sul</desc>
        <g
           style="font-size:25.4px;line-height:1.25;font-family:'Baekmuk Gulim';-inkscape-font-specification:'Baekmuk Gulim';stroke-width:.79375;stroke-miterlimit:4;stroke-dasharray:none"
           id="text940">
          <path
             id="_linkriodosul"
             d="m 40.905527,3.2100541 c -0.602029,5.8040866 0.290353,8.4218109 5.398188,22.2405209 1.47322,13.565156 -4.798388,19.385484 -10.580452,25.695356 32.171386,-9.416017 61.640275,-11.625363 88.629627,-7.222595 l 76.48896,8.94235 c -7.91756,-9.200444 -19.14532,-17.393438 -14.53774,-30.405882 4.31276,-6.745881 5.15497,-16.9623189 7.41208,-25.7638487 -39.80423,-6.6776697 -90.55034,-4.6579484 -152.810663,6.5140988 z"
             style="fill:#ffd300;fill-opacity:0.73540616;stroke:none;stroke-width:0.79375;stroke-linecap:round;stroke-linejoin:round;stroke-miterlimit:4;stroke-dasharray:none;stroke-opacity:1">
            <desc
               id="desc1081">Link Regional Rio do Sul</desc>
            <title
               id="title1079">Regional Rio do Sul</title>
          </path>
          <path
             id="linkibirama"
             d="m -19.550333,78.081171 c 2.832659,19.82708 10.7487001,37.517189 7.922471,59.723269 l 66.48819,-7.79958 c 39.028729,-5.49164 70.649922,-4.75507 92.271922,4.38876 -15.25687,-17.6048 -29.55679,-35.209679 -28.49998,-52.814489 -14.75877,1.92027 -18.899753,3.84055 -67.877052,5.76082 -8.39378,-0.50072 -17.17667,-0.22103 -21.07689,-9.73426 -10.736943,-5.34476 -28.2244928,-4.14045 -49.228661,0.47548 z"
             style="fill:#ceff00;stroke:none;stroke-width:1.00062;stroke-linecap:round;stroke-linejoin:round;stroke-miterlimit:4;stroke-dasharray:none;stroke-opacity:1;fill-opacity:.14099473">
            <desc
               id="desc1134">Link Regional Ibirama</desc>
            <title
               id="title1132">Regional Ibirama</title>
          </path>
          <g
             style="font-size:10.5833px;line-height:1.25;font-family:'Baekmuk Gulim';-inkscape-font-specification:'Baekmuk Gulim';stroke-width:.210013"
             id="text1204"
             aria-label="Ituporanga"
             transform="translate(4.7624999)">
            <path
               id="linkituporanga"
               d="m 40.546206,147.05637 c 5.298291,28.35692 -15.262797,44.59226 -24.28714,66.23545 18.240995,-14.0165 89.522764,-6.95272 143.951174,-6.58706 29.29225,-1.35495 59.0032,-2.06064 101.11208,16.45878 -6.02771,-25.85967 -4.02933,-51.71935 -29.70645,-77.57902 -29.6457,4.97759 -47.47399,11.05814 -112.59397,12.72481 -31.19594,-0.10324 -61.642817,-0.7489 -78.475694,-11.25296 z"
               style="fill:#ceff00;fill-opacity:.140995;stroke:none;stroke-width:.79375;stroke-linecap:butt;stroke-linejoin:miter;stroke-miterlimit:4;stroke-dasharray:none;stroke-opacity:1">
              <desc
                 id="desc1231">Link para Regional de Ituporanga</desc>
              <title
                 id="title1229">Regional de Ituporanga</title>
            </path>
            <g
               style="font-size:10.5833px;line-height:1.25;font-family:'Baekmuk Gulim';-inkscape-font-specification:'Baekmuk Gulim';stroke-width:.0555659"
               id="text1235"
               aria-label="Tai칩">
              <path
                 id="linktaio"
                 d="m 255.50829,36.527483 c 7.47662,9.221297 13.24504,18.442593 8.89597,27.66389 l -8.22957,25.935618 c 5.8955,-6.613097 16.17584,-11.495337 47.08787,-8.23349 10.41777,5.623338 22.48297,10.422965 52.52048,6.236468 C 345.76299,80.317227 348.5165,72.504484 348.551,64.691742 l 5.73577,-28.180044 c -1.99089,10.57888 -28.44055,9.381318 -46.8757,12.04259 -49.85227,-4.008935 -41.8239,-8.01787 -51.90278,-12.026805 z"
                 style="fill:#ceff00;fill-opacity:.140995;stroke:none;stroke-width:.79375;stroke-linecap:round;stroke-linejoin:round;stroke-miterlimit:4;stroke-dasharray:none;stroke-opacity:1">
                <desc
                   id="desc1250">Link para Regional de Tai칩</desc>
                <title
                   id="title1248">Regional de Tai칩</title>
              </path>
              <g
                 style="font-size:10.5833px;line-height:1.25;font-family:'Baekmuk Gulim';-inkscape-font-specification:'Baekmuk Gulim';stroke-width:.0147018"
                 id="text1254"
                 aria-label="Inicio">
                <path
                   id="path1269"
                   d="m -96.477995,-63.977326 1.995043,39.651568 44.888577,3.990091 44.3907629,-5.888139 11.71993,-12.211927 -6.06096275,-22.689035 -55.57180115,1.937599 z"
                   style="fill:#56ff1b;fill-opacity:.20495;stroke:none;stroke-width:.79375;stroke-linecap:butt;stroke-linejoin:miter;stroke-miterlimit:4;stroke-dasharray:none;stroke-opacity:1" />
                <g
                   style="font-size:10.5833px;line-height:1.25;font-family:'Baekmuk Gulim';-inkscape-font-specification:'Baekmuk Gulim';stroke-width:.00388985"
                   id="text1785"
                   aria-label="Catarinense"
                   transform="translate(-5.2916667)">
                  <path
                     id="linkctarinense"
                     d="m 286.74191,117.2215 c -1.06599,4.25991 -10.14323,6.18898 7.81383,15.98354 8.02664,4.73714 2.03832,17.11973 -0.15469,27.43191 -9.52893,11.69806 -7.21516,14.97364 -6.94285,19.70109 16.12945,-9.23351 50.39811,-8.07638 83.35376,-7.67139 133.54415,20.82973 88.86137,1.85051 132.45432,2.58864 l 11.15879,9.38044 c -5.05561,-9.95822 -7.86541,-22.09447 -19.32763,-25.83948 -14.64604,-7.2238 0.57981,-17.00698 1.95441,-25.6034 l 9.77029,-10.21398 c -28.44065,6.94689 -58.88189,12.96679 -114.4495,7.34423 z"
                     style="fill:#f90;fill-opacity:.140995;stroke:none;stroke-width:.806008;stroke-linecap:round;stroke-linejoin:round;stroke-miterlimit:4;stroke-dasharray:none;stroke-opacity:1">
                    <desc
                       id="desc1816">Link para a Feira Catarinense</desc>
                    <title
                       id="title1814">Feira Catarinense</title>
                  </path>
                  <g
                     style="font-size:10.5833px;line-height:1.25;font-family:'Baekmuk Gulim';-inkscape-font-specification:'Baekmuk Gulim';stroke-width:.00102919"
                     id="text2212"
                     aria-label="Final">
                    <path
                       id="linknacional"
                       d="m 382.87987,-33.247152 c -0.57635,36.1813751 5.87566,8.604975 10.43723,51.702506 39.86253,-3.849307 69.19454,4.001957 97.26369,13.256401 53.08201,7.00573 37.02291,-8.819924 55.54588,-16.158773 -4.65993,-19.8714648 -4.0723,-39.74293 0.5745,-59.614395 -13.77853,27.870569 -63.40358,34.9772285 -78.35479,24.156708 -28.77162,-18.858205 -57.78647,-16.954829 -85.46651,-13.342447 z"
                       style="fill:#ff0001;fill-opacity:.140995;stroke:none;stroke-width:.79375;stroke-linecap:round;stroke-linejoin:round;stroke-miterlimit:4;stroke-dasharray:none;stroke-opacity:1">
                      <desc
                         id="desc2252">Link para a Feira Nacional</desc>
                      <title
                         id="title2250">Feira Nacional de Matem치tica</title>
                    </path>
                  </g>
                </g>
              </g>
            </g>
          </g>
          <a
             xlink:href="../regRiodoSul.php?feira=riodosul"
             target="_blank"
             id="a123">
            <title
               id="title1078">Regional Rio do Sul</title>
          </a>
        </g>
      </g>
    </g>
  </g>
</svg>
